<svg xmlns="http://www.w3.org/2000/svg" viewBox="0 0 20 20" width="20" height="20">
  <!-- Chat bubble -->
  <path d="M3 3.5A1.5 1.5 0 0 1 4.5 2h11A1.5 1.5 0 0 1 17 3.5v9A1.5 1.5 0 0 1 15.5 14H7l-4 3V3.5z"
        fill="currentColor" opacity="0.18"/>
  <path d="M3 3.5A1.5 1.5 0 0 1 4.5 2h11A1.5 1.5 0 0 1 17 3.5v9A1.5 1.5 0 0 1 15.5 14H7l-4 3V3.5z"
        fill="none" stroke="currentColor" stroke-width="1.7" stroke-linecap="round" stroke-linejoin="round"/>
  <!-- Dots inside bubble -->
  <circle cx="7.5" cy="8.5" r="1" fill="currentColor"/>
  <circle cx="10" cy="8.5" r="1" fill="currentColor"/>
  <circle cx="12.5" cy="8.5" r="1" fill="currentColor"/>
</svg>
