<svg xmlns="http://www.w3.org/2000/svg" viewBox="0 0 24 24" fill="none">
  <!-- Soft body fill -->
  <path d="M6 7l1 13a2 2 0 0 0 2 2h6a2 2 0 0 0 2-2l1-13z" fill="softColor"/>
  <!-- Lid line -->
  <path d="M3 7h18" stroke="currentColor" stroke-width="1.75" stroke-linecap="round"/>
  <!-- Handle -->
  <path d="M9 7V5a1 1 0 0 1 1-1h4a1 1 0 0 1 1 1v2" stroke="currentColor" stroke-width="1.75" stroke-linecap="round" stroke-linejoin="round"/>
  <!-- Body -->
  <path d="M6 7l1 13a2 2 0 0 0 2 2h6a2 2 0 0 0 2-2l1-13" stroke="currentColor" stroke-width="1.75" stroke-linecap="round" stroke-linejoin="round"/>
  <!-- Inner lines -->
  <path d="M10 11v6M14 11v6" stroke="currentColor" stroke-width="1.5" stroke-linecap="round" opacity="0.6"/>
</svg>
