<svg xmlns="http://www.w3.org/2000/svg" viewBox="0 0 24 24" fill="none">
  <path d="M4 4h10l4 4v13a1 1 0 0 1-1 1H5a1 1 0 0 1-1-1V5a1 1 0 0 1 1-1z" fill="softColor"/>
  <path d="M4 4h10l4 4v13a1 1 0 0 1-1 1H5a1 1 0 0 1-1-1V5a1 1 0 0 1 1-1z" stroke="currentColor" stroke-width="1.7" stroke-linejoin="round"/>
  <path d="M14 4v4h4" stroke="currentColor" stroke-width="1.5" stroke-linecap="round" stroke-linejoin="round" opacity="0.55"/>
  <path d="M8 13h8M8 17h5" stroke="currentColor" stroke-width="1.5" stroke-linecap="round" opacity="0.7"/>
</svg>
