<svg xmlns="http://www.w3.org/2000/svg" viewBox="0 0 24 24" fill="none">
  <!-- Soft background on doc -->
  <path d="M4 4h10l4 4v12a2 2 0 0 1-2 2H4a2 2 0 0 1-2-2V6a2 2 0 0 1 2-2z" fill="softColor"/>
  <!-- Doc outline -->
  <path d="M4 4h10l4 4v12a2 2 0 0 1-2 2H4a2 2 0 0 1-2-2V6a2 2 0 0 1 2-2z" stroke="currentColor" stroke-width="1.7" stroke-linejoin="round"/>
  <!-- Folded corner -->
  <path d="M14 4v4h4" stroke="currentColor" stroke-width="1.5" stroke-linecap="round" stroke-linejoin="round" opacity="0.6"/>
  <!-- Pen overlay -->
  <path d="M9.5 17.5l1.5-1.5 5-5a1.06 1.06 0 0 0-1.5-1.5l-5 5-1.5 1.5z" stroke="currentColor" stroke-width="1.6" stroke-linecap="round" stroke-linejoin="round"/>
  <path d="M14 10l1.5 1.5" stroke="currentColor" stroke-width="1.4" stroke-linecap="round" opacity="0.7"/>
</svg>
