<svg xmlns="http://www.w3.org/2000/svg" viewBox="0 0 24 24" fill="none">
  <path d="M4 13a8 8 0 0 1 16 0v3a3 3 0 0 1-3 3h-2" stroke="currentColor" stroke-width="1.7" stroke-linecap="round"/>
  <path d="M7 12h1.5A1.5 1.5 0 0 1 10 13.5v3A1.5 1.5 0 0 1 8.5 18H7a2 2 0 0 1-2-2v-2a2 2 0 0 1 2-2zM17 12h-1.5A1.5 1.5 0 0 0 14 13.5v3a1.5 1.5 0 0 0 1.5 1.5H17a2 2 0 0 0 2-2v-2a2 2 0 0 0-2-2z" fill="softColor" stroke="currentColor" stroke-width="1.7"/>
  <path d="M13 20h2" stroke="currentColor" stroke-width="1.7" stroke-linecap="round"/>
</svg>
